<?xml version="1.0" standalone="no"?>
<!DOCTYPE svg PUBLIC "-//W3C//DTD SVG 1.1//EN" "http://www.w3.org/Graphics/SVG/1.1/DTD/svg11.dtd" >
<svg xmlns="http://www.w3.org/2000/svg">
<metadata></metadata>
<defs>
<font id="foundrymonoline-mediumregular" horiz-adv-x="1192" >
<font-face units-per-em="2048" ascent="1638" descent="-410" />
<missing-glyph horiz-adv-x="485" />
<glyph horiz-adv-x="2048" />
<glyph horiz-adv-x="2048" />
<glyph unicode="&#xd;" horiz-adv-x="1024" />
<glyph unicode=" "  horiz-adv-x="485" />
<glyph unicode="&#x09;" horiz-adv-x="485" />
<glyph unicode="&#xa0;" horiz-adv-x="485" />
<glyph unicode="!" horiz-adv-x="592" d="M184 94q0 115 111 115q113 0 113 -115q0 -110 -113 -110q-111 0 -111 110zM211 389v977h170v-977h-170z" />
<glyph unicode="&#x22;" horiz-adv-x="932" d="M217 922v444h162v-444h-162zM555 922v444h162v-444h-162z" />
<glyph unicode="#" d="M37 449v149h250l59 225h-207v150h250l121 448h164l-123 -448h233l121 448h154l-113 -448h211v-150h-252l-59 -225h209v-149h-250l-121 -449h-162l121 449h-233l-121 -449h-162l121 449h-211zM453 598h229l59 225h-231z" />
<glyph unicode="$" horiz-adv-x="1159" d="M131 311h174q0 -80 42 -114.5t149 -36.5v473q-183 18 -263 90q-92 84 -92 274q0 187 95 275q83 82 260 94v195h157v-195q181 -8 265 -74q94 -73 94 -237h-174q0 84 -39 118.5t-146 36.5v-424q213 -18 289 -90q84 -82 84 -297q0 -198 -90 -292.5t-283 -106.5v-203h-157 v203q-179 8 -267 74q-98 76 -98 237zM311 987q0 -108 43 -147q37 -35 142 -43v413q-103 -2 -144 -52t-41 -171zM653 160q111 2 157 59t46 189q0 129 -41 170q-35 34 -162 45v-463z" />
<glyph unicode="%" horiz-adv-x="1767" d="M147 969q0 213 31 282q55 129 252 129t252 -129q31 -69 31 -282t-29 -283q-57 -131 -254 -131t-254 131q-29 70 -29 283zM281 969q0 -195 20 -238q27 -57 129 -57t129 57q21 43 21 238q0 170 -17 221q-22 70 -133 70t-133 -70q-16 -51 -16 -221zM453 0l729 1366h143 l-733 -1366h-139zM1055 397q0 213 30 283q56 129 252 129q197 0 252 -129q31 -70 31 -283t-29 -282q-57 -131 -254 -131q-196 0 -254 131q-28 69 -28 282zM1188 397q0 -194 20 -237q27 -58 129 -58q103 0 129 58q21 43 21 237q0 170 -17 221q-22 70 -133 70q-110 0 -133 -70 q-16 -51 -16 -221z" />
<glyph unicode="&#x26;" horiz-adv-x="1249" d="M125 387q0 268 158 330q-90 37 -123 125q-23 63 -23 178q0 201 103 283q96 77 325 77q209 0 312 -67q118 -78 118 -260h-174q0 94 -56 131t-198 37q-157 0 -206.5 -44t-49.5 -171q0 -125 62 -168q51 -37 194 -37h330v106h172v-106h121v-164h-121v-174 q0 -264 -103.5 -371.5t-369.5 -107.5q-246 0 -350 79q-121 91 -121 324zM299 385q0 -145 74 -197q63 -45 223 -45q184 0 246 68q55 63 55 252v174h-330q-159 0 -213.5 -49t-54.5 -203z" />
<glyph unicode="'" horiz-adv-x="596" d="M217 922v444h162v-444h-162z" />
<glyph unicode="(" horiz-adv-x="637" d="M59 627q0 571 64 780q41 135 149 190q103 54 306 54v-154q-123 0 -187 -27q-69 -30 -98 -106q-64 -166 -64 -735q0 -568 64 -733q29 -76 98 -105q64 -27 187 -27v-155q-203 0 -306 53q-108 57 -149 193q-64 208 -64 772z" />
<glyph unicode=")" horiz-adv-x="637" d="M59 -236q123 0 189.5 28t95.5 104q64 165 64 733q0 569 -64 735q-29 76 -95.5 104.5t-189.5 28.5v154q203 0 308.5 -54.5t146.5 -189.5q64 -209 64 -780q0 -564 -64 -772q-41 -136 -146.5 -191t-308.5 -55v155z" />
<glyph unicode="*" horiz-adv-x="1079" d="M37 969l49 137l377 -115v375h151v-375l379 115l49 -137l-380 -117l231 -301l-121 -84l-233 301l-232 -301l-123 84l234 301z" />
<glyph unicode="+" d="M78 418v157h438v416h158v-416h440v-157h-440v-418h-158v418h-438z" />
<glyph unicode="," horiz-adv-x="455" d="M39 -205q78 74 92 96q25 41 25 127v191h161v-191q0 -165 -94 -256l-76 -71z" />
<glyph unicode="-" horiz-adv-x="1034" d="M152 418v157h731v-157h-731z" />
<glyph unicode="." horiz-adv-x="455" d="M115 98q0 111 112 111q111 0 111 -111q0 -114 -111 -114q-112 0 -112 114z" />
<glyph unicode="/" horiz-adv-x="1008" d="M-25 -201l887 1778h170l-887 -1778h-170z" />
<glyph unicode="0" horiz-adv-x="1159" d="M123 682q0 260 10 342q25 172 113 256q108 100 334 100q225 0 333 -100q88 -84 113 -256q10 -82 10 -342t-10 -342q-25 -172 -113 -256q-108 -100 -333 -100q-226 0 -334 100q-88 84 -113 256q-10 82 -10 342zM299 682q0 -334 35 -420q49 -119 246 -119q196 0 245 119 q35 86 35 420t-35 420q-49 119 -245 119q-197 0 -246 -119q-35 -86 -35 -420z" />
<glyph unicode="1" horiz-adv-x="965" d="M82 1040l367 326h159v-1208h326v-158h-823v158h323v987l-239 -223z" />
<glyph unicode="2" horiz-adv-x="1133" d="M133 0v324q0 143 66 223q53 65 166 108q110 33 219 68q141 45 184 80q68 55 68 178q0 137 -54.5 188.5t-210.5 51.5q-143 0 -201.5 -36t-58.5 -130h-174q0 182 119 260q102 65 311 65q224 0 330 -84q115 -90 115 -315q0 -195 -117 -291q-70 -57 -282 -130t-238 -91 q-66 -47 -66 -184v-127h701v-158h-877z" />
<glyph unicode="3" horiz-adv-x="1135" d="M113 1055q0 182 125 260q106 65 321 65q234 0 337 -81.5t103 -288.5q0 -232 -137 -295q92 -37 125 -125q25 -64 25 -189q0 -231 -117 -329q-107 -88 -336 -88q-205 0 -309 63q-131 78 -131 264h176q0 -92 60.5 -130t205.5 -38q150 0 209 47q68 56 68 197q0 156 -50.5 199 t-228.5 43h-199v159h199q150 0 203 37q63 45 63 181q0 127 -52 171t-214 44q-145 0 -207.5 -37t-62.5 -129h-176z" />
<glyph unicode="4" horiz-adv-x="1147" d="M90 369v149l600 848h166v-840h199v-157h-199v-369h-172v369h-594zM287 526h397v576z" />
<glyph unicode="5" horiz-adv-x="1163" d="M147 311h170q0 -94 55.5 -131t196.5 -37q164 0 223.5 58.5t59.5 220.5q0 172 -41 231q-53 76 -215 76q-262 0 -262 -160h-168v797h817v-160h-649v-399q74 82 266 82q242 0 338 -109q88 -102 88 -350q0 -244 -106.5 -345t-350.5 -101q-202 0 -303 67q-119 78 -119 260z " />
<glyph unicode="6" horiz-adv-x="1157" d="M123 625q0 319 27 465q53 290 438 290q409 0 409 -325h-172q0 88 -55 127t-180 39q-164 0 -219 -74q-66 -88 -70 -369q109 111 289 111q231 0 331.5 -104.5t100.5 -352.5q0 -448 -440 -448q-324 0 -414 237q-45 119 -45 404zM307 440q0 -161 64.5 -229t208.5 -68 q149 0 208.5 62.5t59.5 224.5q0 176 -53.5 237.5t-194.5 61.5q-293 0 -293 -289z" />
<glyph unicode="7" horiz-adv-x="963" d="M39 1206v160h885v-152l-598 -1214h-193l600 1206h-694z" />
<glyph unicode="8" horiz-adv-x="1153" d="M123 379q0 268 158 330q-91 39 -123 129q-23 63 -23 182q0 199 107 283q102 77 336 77q233 0 333 -77q107 -84 107 -283q0 -119 -23 -182q-32 -90 -123 -129q158 -62 158 -330q0 -223 -119 -316q-102 -79 -333 -79q-232 0 -336 82q-119 90 -119 313zM299 385 q0 -145 66 -197q57 -45 213 -45q153 0 210 45q66 52 66 197q0 147 -68 199q-55 43 -208 43q-160 0 -216 -43q-63 -49 -63 -199zM309 1001q0 -133 62 -176q53 -39 204 -39q152 0 205 39q62 43 62 176q0 134 -64 181q-55 39 -203 39q-147 0 -202 -39q-64 -47 -64 -181z" />
<glyph unicode="9" horiz-adv-x="1155" d="M133 932q0 448 440 448q324 0 414 -237q45 -119 45 -404q0 -319 -26 -465q-54 -290 -439 -290q-409 0 -409 325h172q0 -88 55 -127t180 -39q164 0 217 74q68 88 72 369q-109 -111 -289 -111q-231 0 -331.5 104.5t-100.5 352.5zM307 934q0 -176 53.5 -237.5t194.5 -61.5 q293 0 293 289q0 161 -64.5 229t-208.5 68q-149 0 -208.5 -62.5t-59.5 -224.5z" />
<glyph unicode=":" horiz-adv-x="457" d="M117 98q0 111 112 111q111 0 111 -111q0 -114 -111 -114q-112 0 -112 114zM117 897q0 111 112 111q111 0 111 -111q0 -115 -111 -115q-112 0 -112 115z" />
<glyph unicode=";" horiz-adv-x="455" d="M25 -205q77 74 92 96q24 41 24 127v191h162v-191q0 -165 -94 -256l-76 -71zM115 897q0 111 112 111q111 0 111 -111q0 -115 -111 -115q-112 0 -112 115z" />
<glyph unicode="&#x3c;" horiz-adv-x="1194" d="M68 420v153l997 418l61 -153l-833 -340l833 -344l-59 -154z" />
<glyph unicode="=" d="M78 231v158h1036v-158h-1036zM78 610v158h1036v-158h-1036z" />
<glyph unicode="&#x3e;" horiz-adv-x="1194" d="M68 154l833 344l-833 340l61 153l997 -418v-153l-999 -420z" />
<glyph unicode="?" horiz-adv-x="905" d="M47 1055q0 196 109 280q94 76 295 76q208 0 305 -82q104 -90 104 -295q0 -235 -198 -336q-111 -55 -130 -82q-26 -34 -26 -141v-86h-176v119q0 176 92 254q86 47 174 94q92 55 92 178q0 121 -49 170t-184 49q-133 0 -185.5 -45t-52.5 -153h-170zM307 94q0 115 111 115 q112 0 112 -115q0 -110 -112 -110q-111 0 -111 110z" />
<glyph unicode="@" horiz-adv-x="1573" d="M147 645q0 422 113 567q131 168 528 168q379 0 504 -112q133 -121 133 -492q0 -358 -106 -461q-92 -90 -309 -86v74q-92 -86 -248 -86q-213 0 -287 121q-53 88 -53 297q0 213 51 299q74 123 287 123q153 0 248 -88v73h120v-692q56 -2 95 43q75 90 75 400q0 290 -108 381 q-96 81 -397 81q-336 0 -435 -143q-75 -111 -77 -477q-2 -270 22 -377q31 -145 140.5 -207.5t357.5 -62.5q176 0 268 26q133 39 193 146q20 -13 54 -31t54 -31q-78 -145 -258 -200q-117 -35 -321 -35q-291 0 -431 82q-133 75 -178 256q-35 137 -35 444zM555 635 q0 -166 29 -219q41 -76 172 -76q141 0 196.5 62.5t55.5 232.5q0 172 -56.5 234.5t-197.5 62.5q-129 0 -170 -78q-29 -55 -29 -219z" />
<glyph unicode="A" horiz-adv-x="1286" d="M25 0l528 1366h182l527 -1366h-199l-139 377h-572l-137 -377h-190zM412 535h454l-227 612z" />
<glyph unicode="B" horiz-adv-x="1333" d="M172 0v1366h473q281 0 367 -35q164 -67 164 -309q0 -260 -138 -317q148 -66 148 -312q0 -268 -168 -348q-92 -45 -361 -45h-485zM352 164h289q217 0 266 20q99 39 99 205t-88 205q-54 24 -277 24h-289v-454zM352 782h293q211 0 256 19q94 35 94 192q0 152 -90 189 q-53 20 -274 20h-279v-420z" />
<glyph unicode="C" horiz-adv-x="1325" d="M147 684q0 258 23 363q33 165 145 243q127 90 390 90q249 0 364 -82q127 -90 127 -301h-176q0 125 -68.5 171t-265.5 46q-242 0 -307 -118q-49 -90 -49 -414t49 -412q65 -118 307 -118q197 0 265.5 45t68.5 170h176q0 -211 -127 -301q-117 -82 -367 -82q-262 0 -389 90 q-110 80 -145 245q-21 107 -21 365z" />
<glyph unicode="D" horiz-adv-x="1374" d="M172 0v1366h492q194 0 299 -37q112 -41 178 -141q59 -92 78 -246q8 -76 8 -260q0 -186 -8 -260q-17 -154 -76 -244q-66 -100 -178 -141q-105 -37 -301 -37h-492zM352 166h299q125 0 178 10q103 19 148 84q67 98 67 422t-67 422q-45 65 -148 86q-53 10 -178 10h-299v-1034 z" />
<glyph unicode="E" horiz-adv-x="1214" d="M172 0v1366h897v-164h-715v-420h695v-164h-695v-454h715v-164h-897z" />
<glyph unicode="F" horiz-adv-x="1167" d="M172 0v1366h877v-164h-697v-420h678v-164h-678v-618h-180z" />
<glyph unicode="G" horiz-adv-x="1372" d="M147 682q0 262 21 367q35 165 145 243q129 88 394 88q249 0 372 -82q138 -90 138 -301h-181q0 123 -75.5 169t-272.5 46q-250 0 -315 -127q-43 -84 -43 -403q0 -317 45 -406q65 -124 305 -124q244 0 315 124q47 82 49 347h-380v159h553v-782h-150v123 q-125 -139 -410 -139q-342 0 -444 200q-66 127 -66 498z" />
<glyph unicode="H" horiz-adv-x="1346" d="M172 0v1366h182v-584h639v584h181v-1366h-181v618h-639v-618h-182z" />
<glyph unicode="I" horiz-adv-x="526" d="M172 0v1366h182v-1366h-182z" />
<glyph unicode="J" horiz-adv-x="1100" d="M70 367h174q0 -131 65 -177q56 -40 197 -40q168 0 217 67q35 51 35 215v934h182v-930q0 -123 -8 -174q-45 -278 -426 -278q-217 0 -320 79q-116 93 -116 304z" />
<glyph unicode="K" horiz-adv-x="1243" d="M172 0v1366h180v-590l629 590h248l-740 -680l744 -686h-270l-609 584v-584h-182z" />
<glyph unicode="L" horiz-adv-x="1065" d="M172 0v1366h182v-1202h695v-164h-877z" />
<glyph unicode="M" horiz-adv-x="1688" d="M172 0v1366h236l438 -1139l434 1139h236v-1366h-175v1092l-411 -1092h-174l-412 1092v-1092h-172z" />
<glyph unicode="N" horiz-adv-x="1341" d="M172 0v1366h190l631 -1059v1059h176v-1366h-192l-629 1065v-1065h-176z" />
<glyph unicode="O" horiz-adv-x="1380" d="M147 684q0 260 21 363q31 165 139 243q125 90 381 90q258 0 383 -88q109 -78 141 -243q21 -105 21 -363q0 -260 -23 -371q-34 -168 -143 -243q-125 -88 -377 -88q-256 0 -381 90q-108 78 -141 245q-21 105 -21 365zM328 682q0 -332 59 -424q68 -106 303 -106 q236 0 307 116q54 90 54 416q0 332 -60 424q-67 106 -303 106q-133 0 -203 -28q-96 -39 -129 -144q-28 -88 -28 -360z" />
<glyph unicode="P" horiz-adv-x="1260" d="M172 0v1366h465q285 0 385 -51q152 -80 152 -338q0 -262 -152 -342q-100 -55 -385 -55h-283v-580h-182zM354 743h279q215 0 268 27q92 47 92 203q0 155 -92 203q-53 26 -268 26h-279v-459z" />
<glyph unicode="Q" horiz-adv-x="1380" d="M147 684q0 260 21 363q31 165 139 243q125 90 381 90q258 0 383 -88q109 -78 141 -243q21 -105 21 -363q0 -330 -43 -448q-74 -201 -320 -240l99 -219l-146 -68l-125 273q-256 0 -381 84q-110 73 -145 239q-25 111 -25 377zM328 682q0 -307 49 -406q59 -118 252 -124 l-76 180l145 63l103 -239q143 16 196.5 114.5t53.5 413.5q0 332 -60 424q-67 106 -303 106q-133 0 -203 -28q-96 -39 -129 -144q-28 -88 -28 -360z" />
<glyph unicode="R" horiz-adv-x="1337" d="M172 0v1366h465q289 0 387 -51q150 -78 150 -338q0 -240 -144 -299q105 -31 133 -146q11 -45 11 -194v-338h-177v344q0 100 -6 135q-10 49 -45 75t-112 32q-43 4 -203 4h-277v-590h-182zM354 756h291q229 0 273 22q77 41 77 197q0 112 -43 166q-34 43 -102 53 q-51 8 -217 8h-279v-446z" />
<glyph unicode="S" horiz-adv-x="1325" d="M131 367h180q0 -125 75 -171t280 -46q204 0 278 61q66 53 66 195q0 135 -72 172q-43 24 -199 30q-141 6 -284 10q-154 19 -230 87q-94 86 -94 274q0 223 127 315q121 86 399 86q269 0 390 -82q133 -88 133 -301h-176q0 140 -93 185q-69 32 -258 32q-209 0 -278 -51 q-62 -45 -62 -182q0 -127 78 -166q43 -20 195 -29q141 -6 282 -10q156 -16 232 -86q94 -86 94 -274q0 -223 -129 -327.5t-403 -104.5q-269 0 -394 82q-137 88 -137 301z" />
<glyph unicode="T" horiz-adv-x="1108" d="M37 1204v162h1034v-162h-426v-1204h-182v1204h-426z" />
<glyph unicode="U" horiz-adv-x="1335" d="M160 686v680h182v-680q0 -219 2 -252q4 -108 31 -162q59 -122 293 -122q235 0 295 120q26 54 30 164q2 31 2 252v680h181v-680q0 -223 -5 -299q-6 -98 -32 -166q-97 -237 -471 -237q-375 0 -471 237q-27 68 -33 166q-4 76 -4 299z" />
<glyph unicode="V" horiz-adv-x="1214" d="M8 1366h193l407 -1122l408 1122h190l-514 -1366h-176z" />
<glyph unicode="W" horiz-adv-x="1810" d="M74 1366h184l256 -1094l297 1094h193l294 -1094l261 1094h178l-334 -1366h-193l-305 1116l-303 -1116h-201z" />
<glyph unicode="X" horiz-adv-x="1208" d="M49 0l449 696l-437 670h207l338 -537l336 537h207l-438 -670l448 -696h-207l-350 559l-348 -559h-205z" />
<glyph unicode="Y" horiz-adv-x="1163" d="M4 1366h209l373 -604l368 604h205l-485 -770v-596h-182v596z" />
<glyph unicode="Z" horiz-adv-x="1249" d="M125 0v160l782 1044h-782v162h999v-160l-784 -1042h784v-164h-999z" />
<glyph unicode="[" horiz-adv-x="637" d="M104 -391v2042h474v-154h-304v-1733h304v-155h-474z" />
<glyph unicode="\" horiz-adv-x="1008" d="M-25 1577h170l887 -1778h-170z" />
<glyph unicode="]" horiz-adv-x="637" d="M59 -236h303v1733h-303v154h473v-2042h-473v155z" />
<glyph unicode="^" horiz-adv-x="1194" d="M74 442l448 942h146l452 -944l-157 -61l-371 795l-363 -795z" />
<glyph unicode="_" horiz-adv-x="1071" d="M0 -236h1071v-161h-1071v161z" />
<glyph unicode="`" horiz-adv-x="874" d="M203 1366h196l273 -258h-197z" />
<glyph unicode="a" horiz-adv-x="1104" d="M96 293q0 190 123 262q92 53 287 53h293q0 148 -31 187q-45 59 -219 59q-117 0 -172 -20q-84 -33 -84 -127h-168q0 301 438 301q275 0 361 -138q47 -75 47 -262v-608h-160v96q-96 -112 -330 -112q-385 0 -385 309zM272 295q0 -86 49.5 -124t176.5 -38q194 0 256 82 q47 64 47 246h-303q-125 0 -170 -31q-56 -35 -56 -135z" />
<glyph unicode="b" horiz-adv-x="1141" d="M143 0v1427h174v-528q95 109 314 109q246 0 332 -144q65 -108 65 -370q0 -246 -61 -353q-93 -157 -355 -157q-206 0 -309 112v-96h-160zM315 496q0 -207 62.5 -280t232.5 -73q148 0 199 84q43 74 43 269q0 194 -43 266q-51 82 -199 82q-172 0 -233.5 -71t-61.5 -277z" />
<glyph unicode="c" horiz-adv-x="1071" d="M113 498q0 260 71 366q97 144 373 144q412 0 412 -306h-166q-2 148 -242 148q-176 0 -231 -84q-41 -68 -41 -268q0 -203 41 -271q55 -86 231 -86q240 0 242 148h166q0 -305 -412 -305q-276 0 -373 145q-71 109 -71 369z" />
<glyph unicode="d" horiz-adv-x="1141" d="M113 496q0 254 65 362q88 150 332 150q219 0 313 -109v528h174v-1427h-161v100q-103 -116 -316 -116q-260 0 -348 153q-59 105 -59 359zM289 494q0 -197 43 -267q51 -84 198 -84q170 0 232.5 72t62.5 279q0 206 -62.5 278t-232.5 72q-147 0 -198 -84q-43 -70 -43 -266z " />
<glyph unicode="e" horiz-adv-x="1102" d="M113 487q0 265 75 377q99 144 365 144q285 0 375 -160q61 -109 61 -412h-700q0 -168 47 -229q57 -72 227 -72q248 0 250 154h164q0 -305 -418 -305q-270 0 -369 137q-77 108 -77 366zM291 586h526q0 151 -47 207q-55 65 -217 65q-154 0 -213 -70q-49 -59 -49 -202z" />
<glyph unicode="f" horiz-adv-x="907" d="M45 842v149h160v135q0 316 364 316q336 0 336 -234h-170q0 90 -164 90q-114 0 -154 -44t-40 -148v-115h375v-149h-373v-842h-174v842h-160z" />
<glyph unicode="g" horiz-adv-x="1139" d="M113 504q0 254 67 362q90 142 334 142q215 0 320 -111v94h161v-891q0 -172 -8 -223q-43 -274 -442 -274q-410 0 -410 295h172q0 -142 232 -142q256 0 276 160q2 21 6 193q-98 -109 -305 -109q-254 0 -342 152q-61 104 -61 352zM289 502q0 -195 43 -262q49 -78 196 -78 q170 0 232.5 67.5t62.5 272.5q0 203 -62.5 274.5t-232.5 71.5q-147 0 -196 -82q-43 -70 -43 -264z" />
<glyph unicode="h" horiz-adv-x="1112" d="M143 0v1427h174v-524q103 105 287 105q264 0 338 -152q37 -76 37 -313v-543h-174v522q0 199 -21 242q-36 82 -196 82q-187 0 -240 -119q-31 -68 -31 -270v-457h-174z" />
<glyph unicode="i" horiz-adv-x="461" d="M127 1278q0 102 102 102q103 0 103 -102t-103 -102q-102 0 -102 102zM143 0v991h174v-991h-174z" />
<glyph unicode="j" horiz-adv-x="461" d="M-397 -123h170q0 -127 178 -127q127 0 168 62q24 36 24 135v1044h174v-1067q0 -321 -366 -321q-340 0 -348 274zM129 1278q0 102 102 102q103 0 103 -102t-103 -102q-102 0 -102 102z" />
<glyph unicode="k" horiz-adv-x="1018" d="M143 0v1427h174v-827l459 391h240l-537 -454l537 -537h-238l-461 471v-471h-174z" />
<glyph unicode="l" horiz-adv-x="461" d="M143 0v1427h174v-1427h-174z" />
<glyph unicode="m" horiz-adv-x="1649" d="M143 0v991h162v-94q98 111 281 111q198 0 276 -131q109 131 309 131q248 0 318 -164q27 -62 27 -248v-596h-175v600q0 139 -22 182q-37 66 -166 66q-166 0 -213 -131q-22 -68 -22 -266v-451h-175v600q0 139 -22 182q-37 66 -166 66q-166 0 -213 -133q-25 -70 -25 -269 v-446h-174z" />
<glyph unicode="n" horiz-adv-x="1112" d="M143 0v991h158v-96q100 113 303 113q264 0 338 -152q37 -76 37 -313v-543h-174v522q0 199 -21 242q-36 82 -196 82q-187 0 -240 -119q-31 -68 -31 -270v-457h-174z" />
<glyph unicode="o" horiz-adv-x="1137" d="M113 496q0 301 100 401q111 111 356 111q359 0 428 -242q27 -90 27 -270q0 -301 -100 -402q-111 -110 -355 -110q-360 0 -430 241q-26 92 -26 271zM289 496q0 -203 41 -267q55 -88 239 -88q183 0 238 88q41 64 41 267q0 202 -43 268q-53 86 -236 86q-184 0 -239 -88 q-41 -64 -41 -266z" />
<glyph unicode="p" horiz-adv-x="1141" d="M143 -391v1382h162v-98q105 115 313 115h7q252 -2 338 -144q65 -104 65 -370q0 -242 -63 -351q-93 -159 -353 -159q-200 0 -295 110v-485h-174zM317 496q0 -209 62.5 -281t232.5 -72q148 0 199 84q43 72 43 269q0 194 -43 266q-51 82 -199 82q-172 0 -233.5 -71 t-61.5 -277z" />
<glyph unicode="q" horiz-adv-x="1139" d="M113 496q0 256 63 364q88 148 336 148q215 0 322 -115v98h161v-1382h-174v485q-102 -110 -309 -110q-254 0 -342 155q-57 105 -57 357zM289 494q0 -197 43 -267q49 -84 196 -84q170 0 231.5 72t61.5 279q0 206 -61.5 278t-231.5 72q-147 0 -196 -84q-43 -70 -43 -266z " />
<glyph unicode="r" horiz-adv-x="922" d="M143 0v991h164v-96q94 113 281 113q313 0 313 -301h-168q0 84 -38 113.5t-140 29.5q-166 0 -213 -145q-25 -72 -25 -275v-430h-174z" />
<glyph unicode="s" horiz-adv-x="1051" d="M102 289h162q0 -86 51.5 -121t188.5 -35q135 0 180 19q86 32 86 145q0 82 -55 104q-33 15 -172 21q-228 10 -293 39q-129 58 -129 246v6q2 168 119 237q99 58 305 58h14q193 -2 285 -66q104 -74 104 -240h-162q0 86 -50 120t-175 36h-17q-138 0 -196 -31 q-51 -30 -53 -102v-6q0 -94 57 -121q25 -10 154 -16q194 -11 213 -13q110 -16 162 -71q63 -68 63 -213q0 -168 -119 -240q-101 -61 -306 -61h-13q-205 2 -299 65q-105 72 -105 240z" />
<glyph unicode="t" horiz-adv-x="956" d="M59 842v149h164v375h174v-375h439v-149h-439v-549q0 -88 40 -124t136 -36q181 0 181 156h161q0 -305 -350 -305q-342 0 -342 309v549h-164z" />
<glyph unicode="u" horiz-adv-x="1112" d="M133 451v540h176v-522q0 -199 19 -242q39 -82 198 -82q187 0 238 119q31 66 31 271v456h174v-991h-162v98q-102 -114 -303 -114q-256 0 -330 151q-41 80 -41 316z" />
<glyph unicode="v" horiz-adv-x="1004" d="M27 991h186l293 -778l289 778h182l-387 -991h-174z" />
<glyph unicode="w" horiz-adv-x="1460" d="M41 991h182l205 -772l215 772h178l217 -772l205 772h176l-282 -991h-183l-221 774l-221 -774h-186z" />
<glyph unicode="x" horiz-adv-x="1014" d="M31 0l372 506l-358 485h209l254 -364l262 364h203l-363 -483l373 -508h-209l-268 385l-275 -385h-200z" />
<glyph unicode="y" horiz-adv-x="967" d="M29 991h182l276 -776l273 776h182l-522 -1382h-178l155 403z" />
<glyph unicode="z" horiz-adv-x="997" d="M94 0v147l586 695h-586v149h807v-147l-584 -688h584v-156h-807z" />
<glyph unicode="{" horiz-adv-x="780" d="M141 651q0 66 86 148t86 139v336q0 227 89.5 322.5t312.5 95.5v-154q-146 0 -189 -53t-43 -207v-365q0 -77 -47 -139q-47 -45 -94 -92q-33 -33 -2 -64q51 -49 100 -100q43 -53 43 -131v-362q0 -152 41 -203q47 -58 191 -58v-155q-223 0 -312.5 96t-89.5 324v331 q0 62 -86 143t-86 148z" />
<glyph unicode="|" horiz-adv-x="584" d="M207 -391v1757h170v-1757h-170z" />
<glyph unicode="}" horiz-adv-x="780" d="M66 -236q143 0 190 58q41 51 41 203v362q0 78 46 130t97 101q31 31 -2 64q-47 47 -94 92q-47 62 -47 139v365q0 154 -43 207t-188 53v154q223 0 312 -95.5t89 -322.5v-336q0 -57 86 -139t86 -148q0 -67 -86 -148t-86 -143v-331q0 -228 -89 -324t-312 -96v155z" />
<glyph unicode="~" d="M68 463q71 63 170 127q88 55 180 55q82 0 155 -45q150 -94 207 -94q45 0 92 29q76 47 152 108l100 -119q-69 -61 -170 -127q-88 -57 -180 -57q-82 0 -156 47q-149 94 -208 94q-45 0 -93 -28q-75 -47 -151 -109z" />
<glyph unicode="&#xa1;" horiz-adv-x="592" d="M184 897q0 111 113 111q111 0 111 -111q0 -115 -111 -115q-113 0 -113 115zM211 -375v977h170v-977h-170z" />
<glyph unicode="&#xa2;" horiz-adv-x="1100" d="M113 500q0 248 67 354q84 135 312 152v172h155v-172q350 -25 350 -304h-166q-2 134 -184 146v-705q182 13 184 146h166q0 -277 -350 -301v-183h-155v183q-228 18 -312 153q-67 111 -67 359zM287 498q0 -181 32 -250q43 -90 173 -105v705q-140 -12 -181 -121 q-24 -63 -24 -229z" />
<glyph unicode="&#xa3;" horiz-adv-x="1184" d="M109 0v160h124v452h-124v158h124v168q0 139 7 180q16 99 79 160q109 102 343 102q186 0 276 -45q145 -73 145 -280h-168q0 106 -71 143q-45 23 -162 23q-178 0 -231 -64q-41 -49 -41 -215v-172h583v-158h-583v-452h692v-160h-993z" />
<glyph unicode="&#xa4;" d="M94 743v148h123q6 254 96 364q103 125 357 125q420 0 420 -325h-177q0 100 -67 137q-51 29 -176 29q-172 0 -230 -86q-45 -66 -47 -244h367v-148h-369v-116h367v-148h-365q2 -182 45 -246q58 -86 230 -86q118 0 168 23q77 35 77 141h177q0 -325 -420 -325 q-256 0 -359 129q-88 110 -94 364h-121v148h121v116h-123z" />
<glyph unicode="&#xa5;" horiz-adv-x="1190" d="M33 1366h203l360 -602l358 602h203l-303 -496h156v-147h-246l-72 -115h318v-147h-326v-461h-178v461h-326v147h318l-72 115h-248v147h158z" />
<glyph unicode="&#xa6;" horiz-adv-x="584" d="M207 270h170v-661h-170v661zM207 705v661h170v-661h-170z" />
<glyph unicode="&#xa7;" horiz-adv-x="1178" d="M164 1059q0 186 125 262q94 57 286 59q222 2 322 -65q113 -74 115 -260h-174q0 94 -54.5 130t-208.5 36q-116 0 -163 -27q-70 -37 -70 -145q0 -111 72 -140q39 -16 182 -16q233 0 324.5 -75t91.5 -236q0 -181 -123 -234q125 -59 125 -248q0 -186 -125 -262 q-94 -57 -287 -59q-221 -2 -321 65q-115 76 -115 260h174q0 -94 54.5 -129.5t207.5 -35.5q117 0 164 26q70 37 70 146q0 110 -72 139q-41 16 -182 16q-234 0 -325 75t-91 237q0 180 123 233q-125 59 -125 248zM342 573q0 -102 70 -133q47 -20 180 -20q125 0 172 22 q70 35 70 142q0 102 -70 133q-45 20 -178 20q-125 0 -172 -22q-72 -35 -72 -142z" />
<glyph unicode="&#xa8;" horiz-adv-x="874" d="M117 1268q0 98 98 98q102 0 102 -98q0 -101 -102 -101q-98 0 -98 101zM557 1268q0 98 98 98q103 0 103 -98q0 -101 -103 -101q-98 0 -98 101z" />
<glyph unicode="&#xa9;" horiz-adv-x="1669" d="M147 688q0 410 139.5 551t547.5 141q407 0 547.5 -143t140.5 -553q0 -403 -143.5 -551.5t-544.5 -148.5q-406 0 -546.5 148.5t-140.5 555.5zM279 682q0 -342 104 -455q111 -118 451 -118q342 0 452 122q105 113 105 459q0 344 -106.5 455.5t-450.5 111.5 q-347 0 -455 -114q-100 -111 -100 -461zM416 684q0 256 82 356q92 115 340 115q192 0 282 -59q111 -72 111 -248h-131q0 115 -76 156q-53 28 -186 28q-187 0 -244 -86q-43 -63 -43 -262t43 -264q57 -84 244 -84q133 0 186 29q76 41 76 155h131q0 -176 -111 -248 q-90 -59 -282 -59q-252 0 -342 113q-80 98 -80 358z" />
<glyph unicode="&#xaa;" horiz-adv-x="782" d="M72 889q0 133 90 186q67 37 207 37h211v2q2 92 -35 123t-148 31q-180 0 -180 -92h-125q0 204 318 204q198 0 262 -100q35 -55 35 -201v-391h-111v76q-98 -86 -238 -86q-286 0 -286 211zM197 891q0 -57 31.5 -80t125.5 -23q166 0 209 103q15 33 15 108h-216 q-86 0 -120 -18q-45 -23 -45 -90z" />
<glyph unicode="&#xab;" horiz-adv-x="979" d="M88 489q0 109 98 238q52 66 185 195l112 -109l-84 -86q-145 -149 -145 -235q0 -62 53 -132q25 -32 111 -118l63 -64l-112 -106q-140 131 -185 186q-96 121 -96 231zM504 489q0 109 98 238q51 66 184 195l113 -109l-84 -86q-145 -149 -145 -235q0 -62 53 -132 q25 -32 111 -118l63 -64l-113 -106q-139 131 -184 186q-96 121 -96 231z" />
<glyph unicode="&#xac;" d="M78 608v160h1036v-768h-166v608h-870z" />
<glyph unicode="&#xad;" horiz-adv-x="1034" d="M152 418v157h731v-157h-731z" />
<glyph unicode="&#xae;" horiz-adv-x="1075" d="M74 920q0 278 93 369t372 91q276 0 369 -93t93 -369q0 -269 -96 -367t-366 -98q-275 0 -370 97t-95 370zM172 915q0 -225 69.5 -296.5t297.5 -71.5q225 0 294.5 74.5t69.5 300.5q0 225 -69.5 294.5t-294.5 69.5q-232 0 -299.5 -69.5t-67.5 -301.5zM342 643v561h197 q106 0 147 -20q64 -31 64 -131q0 -84 -58 -121q58 -33 58 -131v-158h-95v164q0 53 -22 67q-15 11 -72 11h-121v-242h-98zM438 971h99q71 0 86 6q30 12 30 67q0 58 -26 70q-15 6 -97 6h-92v-149z" />
<glyph unicode="&#xaf;" horiz-adv-x="877" d="M86 1202v133h705v-133h-705z" />
<glyph unicode="&#xb0;" horiz-adv-x="1100" d="M244 1059q0 164 72.5 235.5t232.5 71.5t233.5 -72.5t73.5 -234.5q0 -164 -73.5 -240t-231.5 -76q-160 0 -233.5 76t-73.5 240zM377 1055q0 -105 34.5 -145t137.5 -40q102 0 139 40t37 145q0 104 -37 144t-139 40q-103 0 -137.5 -40t-34.5 -144z" />
<glyph unicode="&#xb1;" d="M66 0v158h1060v-158h-1060zM76 629v157h440v363h158v-363h442v-157h-442v-365h-158v365h-440z" />
<glyph unicode="&#xb2;" horiz-adv-x="840" d="M100 1161q0 213 279 213q141 0 212 -55t71 -189q0 -114 -52 -163q-28 -27 -133 -66q-69 -24 -139 -47q-72 -29 -92 -61q-15 -25 -15 -68v-63h428v-115h-557v198q0 127 103 185q24 14 211 69q69 21 92.5 46.5t23.5 84.5q0 76 -31.5 103t-119.5 27q-76 0 -105 -13 q-49 -20 -49 -86h-127z" />
<glyph unicode="&#xb3;" horiz-adv-x="840" d="M96 762h127q2 -60 36 -82.5t120 -22.5q92 0 121 17q43 24 43 112q0 91 -41 117q-27 19 -119 19h-156v112h156q86 0 115 19q37 20 37 92q0 76 -33 98.5t-119 22.5q-88 0 -122 -22.5t-34 -82.5h-125q0 219 281 219q143 0 211 -54t68 -177q0 -129 -68 -172q76 -45 76 -189 q0 -137 -80 -194q-68 -51 -211 -51q-283 0 -283 219z" />
<glyph unicode="&#xb4;" horiz-adv-x="874" d="M203 1108l272 258h197l-273 -258h-196z" />
<glyph unicode="&#xb6;" horiz-adv-x="1208" d="M76 979q0 266 170 342q98 45 397 45h365v-1366h-160v1208h-119v-1208h-160v596h-92q-192 0 -287 74q-114 90 -114 309zM250 985q0 -170 82 -209q41 -20 237 -20v452q-184 0 -231 -22q-88 -41 -88 -201z" />
<glyph unicode="&#xb7;" horiz-adv-x="453" d="M115 690q0 111 112 111q111 0 111 -111q0 -115 -111 -115q-112 0 -112 115z" />
<glyph unicode="&#xb8;" horiz-adv-x="877" d="M254 -244h96q0 -57 76 -57q70 0 70 72q0 63 -72 67q-33 2 -62 2v160h103v-84q133 -4 133 -141q0 -162 -172 -162t-172 143z" />
<glyph unicode="&#xb9;" horiz-adv-x="821" d="M106 1169l226 197h104v-702h185v-117h-498v117h182v524l-115 -101z" />
<glyph unicode="&#xba;" horiz-adv-x="786" d="M68 1030q0 205 74.5 277.5t250.5 72.5q217 0 287 -118q39 -70 39 -232q0 -201 -74 -272q-80 -78 -252 -78q-272 0 -313 190q-12 56 -12 160zM195 1030q0 -137 28 -178q37 -55 170 -55q131 0 170 55q29 41 29 178t-31 180q-39 56 -168 56q-133 0 -170 -56 q-28 -41 -28 -180z" />
<glyph unicode="&#xbb;" horiz-adv-x="979" d="M80 813l113 109q133 -129 184 -195q98 -129 98 -238q0 -110 -96 -231q-45 -55 -184 -186l-113 106l63 64q86 86 111 118q53 70 53 132q0 86 -145 235zM496 813l112 109q133 -129 185 -195q98 -129 98 -238q0 -110 -96 -231q-45 -55 -185 -186l-112 106l63 64 q86 86 111 118q53 70 53 132q0 86 -145 235z" />
<glyph unicode="&#xbc;" horiz-adv-x="1653" d="M106 1169l226 197h104v-702h185v-117h-498v117h182v524l-115 -101zM418 0l729 1366h143l-733 -1366h-139zM879 211v108l385 512h120v-509h123v-111h-123v-211h-124v211h-381zM1022 322h238v327z" />
<glyph unicode="&#xbd;" horiz-adv-x="1647" d="M106 1169l226 197h104v-704h185v-115h-498v115h182v526l-115 -101zM418 0l729 1366h143l-733 -1366h-139zM1020 614q0 213 278 213q142 0 212.5 -55t70.5 -188q0 -115 -51 -164q-29 -27 -133 -66q-70 -24 -140 -47q-71 -28 -92 -61q-14 -25 -14 -68v-63h428v-115h-557 v199q0 127 102 184q25 14 211 70q70 20 93.5 45.5t23.5 85.5q0 75 -31.5 102t-120.5 27q-75 0 -104 -13q-49 -20 -49 -86h-127z" />
<glyph unicode="&#xbe;" horiz-adv-x="1632" d="M96 762h127q2 -60 36 -82.5t120 -22.5q92 0 121 17q43 24 43 112q0 91 -41 117q-27 19 -119 19h-156v112h156q86 0 115 19q37 20 37 92q0 76 -33 98.5t-119 22.5q-88 0 -122 -22.5t-34 -82.5h-125q0 219 281 219q143 0 211 -54t68 -177q0 -129 -68 -172q76 -45 76 -189 q0 -137 -80 -194q-68 -51 -211 -51q-283 0 -283 219zM418 0l729 1366h143l-733 -1366h-139zM879 211v108l385 512h120v-509h123v-111h-123v-211h-124v211h-381zM1022 322h238v327z" />
<glyph unicode="&#xbf;" horiz-adv-x="905" d="M51 -43q0 236 199 336q110 55 129 82q27 35 27 141v86h176v-119q0 -176 -93 -254q-86 -47 -174 -94q-92 -55 -92 -178q0 -121 49.5 -170t184.5 -49q133 0 185 45t52 154h170q0 -197 -108 -281q-94 -76 -295 -76q-209 0 -305 82q-105 90 -105 295zM381 897q0 111 113 111 q110 0 110 -111q0 -115 -110 -115q-113 0 -113 115z" />
<glyph unicode="&#xc0;" horiz-adv-x="1286" d="M25 0l528 1366h182l527 -1366h-199l-139 377h-572l-137 -377h-190zM387 1765h196l273 -258h-197zM412 535h454l-227 612z" />
<glyph unicode="&#xc1;" horiz-adv-x="1286" d="M25 0l528 1366h182l527 -1366h-199l-139 377h-572l-137 -377h-190zM412 535h454l-227 612zM453 1507l272 258h197l-273 -258h-196z" />
<glyph unicode="&#xc2;" horiz-adv-x="1286" d="M25 0l528 1366h182l527 -1366h-199l-139 377h-572l-137 -377h-190zM309 1505l268 260h156l268 -260h-184l-162 156l-159 -156h-187zM412 535h454l-227 612z" />
<glyph unicode="&#xc3;" horiz-adv-x="1286" d="M25 0l528 1366h182l527 -1366h-199l-139 377h-572l-137 -377h-190zM244 1659q68 34 133 69q80 35 143 35q64 0 123 -35q95 -55 127 -55q37 0 86 25l121 63l64 -119q-68 -35 -133 -69q-80 -37 -144 -37q-61 0 -121 35q-92 55 -129 55t-86 -25l-121 -61zM412 535h454 l-227 612z" />
<glyph unicode="&#xc4;" horiz-adv-x="1286" d="M25 0l528 1366h182l527 -1366h-199l-139 377h-572l-137 -377h-190zM332 1669q0 98 98 98q102 0 102 -98q0 -101 -102 -101q-98 0 -98 101zM412 535h454l-227 612zM772 1669q0 98 98 98q103 0 103 -98q0 -101 -103 -101q-98 0 -98 101z" />
<glyph unicode="&#xc5;" horiz-adv-x="1286" d="M25 0l495 1290q-123 33 -123 223q0 125 56.5 173.5t187.5 48.5q133 0 189.5 -51.5t56.5 -176.5q0 -188 -125 -219l498 -1288h-197l-141 377h-570l-139 -377h-188zM410 535h454l-227 612zM518 1499q0 -94 45 -110q25 -9 80 -9q76 0 100.5 21.5t24.5 97.5t-24.5 102.5 t-102.5 26.5t-100.5 -26.5t-22.5 -102.5z" />
<glyph unicode="&#xc6;" horiz-adv-x="1907" d="M4 0l914 1366h843v-164h-635v-420h615v-164h-615v-454h635v-164h-813v377h-487l-248 -377h-209zM565 537h383v581z" />
<glyph unicode="&#xc7;" horiz-adv-x="1325" d="M147 684q0 258 23 363q33 165 145 243q127 90 390 90q249 0 364 -82q127 -90 127 -301h-176q0 125 -68.5 171t-265.5 46q-242 0 -307 -118q-49 -90 -49 -414t49 -412q65 -118 307 -118q197 0 265.5 45t68.5 170h176q0 -203 -115 -291q-104 -84 -333 -90v-70 q133 -4 133 -141q0 -162 -172 -162t-172 143h96q0 -57 76 -57q69 0 69 72q0 63 -71 67q-33 2 -62 2v146q-336 12 -434 207q-64 124 -64 491z" />
<glyph unicode="&#xc8;" horiz-adv-x="1214" d="M172 0v1366h897v-164h-715v-420h695v-164h-695v-454h715v-164h-897zM353 1765h196l273 -258h-197z" />
<glyph unicode="&#xc9;" horiz-adv-x="1214" d="M172 0v1366h897v-164h-715v-420h695v-164h-695v-454h715v-164h-897zM416 1507l272 258h197l-273 -258h-196z" />
<glyph unicode="&#xca;" horiz-adv-x="1214" d="M172 0v1366h897v-164h-715v-420h695v-164h-695v-454h715v-164h-897zM278 1505l268 260h156l268 -260h-184l-162 156l-159 -156h-187z" />
<glyph unicode="&#xcb;" horiz-adv-x="1214" d="M172 0v1366h897v-164h-715v-420h695v-164h-695v-454h715v-164h-897zM320 1667q0 98 98 98q102 0 102 -98q0 -101 -102 -101q-98 0 -98 101zM760 1667q0 98 98 98q103 0 103 -98q0 -101 -103 -101q-98 0 -98 101z" />
<glyph unicode="&#xcc;" horiz-adv-x="526" d="M61 1765h196l273 -258h-197zM172 0v1366h182v-1366h-182z" />
<glyph unicode="&#xcd;" horiz-adv-x="526" d="M71 1507l272 258h197l-273 -258h-196zM172 0v1366h182v-1366h-182z" />
<glyph unicode="&#xce;" horiz-adv-x="526" d="M-44 1505l268 260h156l268 -260h-184l-162 156l-159 -156h-187zM172 0v1366h182v-1366h-182z" />
<glyph unicode="&#xcf;" horiz-adv-x="526" d="M-19 1667q0 98 98 98q102 0 102 -98q0 -101 -102 -101q-98 0 -98 101zM172 0v1366h182v-1366h-182zM421 1667q0 98 98 98q103 0 103 -98q0 -101 -103 -101q-98 0 -98 101z" />
<glyph unicode="&#xd0;" horiz-adv-x="1409" d="M51 606v164h156v596h491q195 0 299 -37q113 -41 179 -141q59 -92 77 -246q9 -76 9 -260q0 -186 -9 -260q-16 -154 -75 -244q-66 -100 -179 -141q-104 -37 -301 -37h-491v606h-156zM387 166h299q125 0 178 10q103 19 148 84q67 98 67 422t-67 422q-45 65 -148 86 q-53 10 -178 10h-299v-430h367v-164h-367v-440z" />
<glyph unicode="&#xd1;" horiz-adv-x="1341" d="M172 0v1366h190l631 -1059v1059h176v-1366h-192l-629 1065v-1065h-176zM279 1663q68 34 133 69q80 35 143 35q64 0 123 -35q95 -55 127 -55q37 0 86 25l121 63l64 -119q-68 -35 -133 -69q-80 -37 -144 -37q-61 0 -121 35q-92 55 -129 55t-86 -25l-121 -61z" />
<glyph unicode="&#xd2;" horiz-adv-x="1380" d="M147 684q0 260 21 363q31 165 139 243q125 90 381 90q258 0 383 -88q109 -78 141 -243q21 -105 21 -363q0 -260 -23 -371q-34 -168 -143 -243q-125 -88 -377 -88q-256 0 -381 90q-108 78 -141 245q-21 105 -21 365zM328 682q0 -332 59 -424q68 -106 303 -106 q236 0 307 116q54 90 54 416q0 332 -60 424q-67 106 -303 106q-133 0 -203 -28q-96 -39 -129 -144q-28 -88 -28 -360zM465 1765h196l273 -258h-197z" />
<glyph unicode="&#xd3;" horiz-adv-x="1380" d="M147 684q0 260 21 363q31 165 139 243q125 90 381 90q258 0 383 -88q109 -78 141 -243q21 -105 21 -363q0 -260 -23 -371q-34 -168 -143 -243q-125 -88 -377 -88q-256 0 -381 90q-108 78 -141 245q-21 105 -21 365zM328 682q0 -332 59 -424q68 -106 303 -106 q236 0 307 116q54 90 54 416q0 332 -60 424q-67 106 -303 106q-133 0 -203 -28q-96 -39 -129 -144q-28 -88 -28 -360zM443 1507l272 258h197l-273 -258h-196z" />
<glyph unicode="&#xd4;" horiz-adv-x="1380" d="M147 684q0 260 21 363q31 165 139 243q125 90 381 90q258 0 383 -88q109 -78 141 -243q21 -105 21 -363q0 -260 -23 -371q-34 -168 -143 -243q-125 -88 -377 -88q-256 0 -381 90q-108 78 -141 245q-21 105 -21 365zM328 682q0 -332 59 -424q68 -106 303 -106 q236 0 307 116q54 90 54 416q0 332 -60 424q-67 106 -303 106q-133 0 -203 -28q-96 -39 -129 -144q-28 -88 -28 -360zM342 1505l268 260h156l268 -260h-184l-162 156l-159 -156h-187z" />
<glyph unicode="&#xd5;" horiz-adv-x="1380" d="M147 684q0 260 21 363q31 165 139 243q125 90 381 90q258 0 383 -88q109 -78 141 -243q21 -105 21 -363q0 -260 -23 -371q-34 -168 -143 -243q-125 -88 -377 -88q-256 0 -381 90q-108 78 -141 245q-21 105 -21 365zM291 1663q68 34 133 69q80 35 143 35q64 0 123 -35 q95 -55 127 -55q37 0 86 25l121 63l64 -119q-68 -35 -133 -69q-80 -37 -144 -37q-61 0 -121 35q-92 55 -129 55t-86 -25l-121 -61zM328 682q0 -332 59 -424q68 -106 303 -106q236 0 307 116q54 90 54 416q0 332 -60 424q-67 106 -303 106q-133 0 -203 -28q-96 -39 -129 -144 q-28 -88 -28 -360z" />
<glyph unicode="&#xd6;" horiz-adv-x="1380" d="M147 684q0 260 21 363q31 165 139 243q125 90 381 90q258 0 383 -88q109 -78 141 -243q21 -105 21 -363q0 -260 -23 -371q-34 -168 -143 -243q-125 -88 -377 -88q-256 0 -381 90q-108 78 -141 245q-21 105 -21 365zM328 682q0 -332 59 -424q68 -106 303 -106 q236 0 307 116q54 90 54 416q0 332 -60 424q-67 106 -303 106q-133 0 -203 -28q-96 -39 -129 -144q-28 -88 -28 -360zM377 1669q0 98 98 98q102 0 102 -98q0 -101 -102 -101q-98 0 -98 101zM817 1669q0 98 98 98q103 0 103 -98q0 -101 -103 -101q-98 0 -98 101z" />
<glyph unicode="&#xd7;" d="M119 152l366 364l-366 369l110 110l365 -368l369 368l110 -110l-368 -369l368 -364l-110 -111l-369 367l-365 -367z" />
<glyph unicode="&#xd8;" horiz-adv-x="1380" d="M147 688q3 260 23 363q33 166 141 243q127 88 383 86q68 0 78 -2l62 275l151 -37l-59 -260q207 -53 268 -228q41 -120 39 -446q-2 -260 -27 -371q-35 -168 -145 -243q-125 -86 -377 -84q-53 0 -78 2l-63 -279l-152 33l64 270q-209 51 -271 238q-39 121 -37 440zM328 686 q-2 -334 55 -426q39 -61 111 -82l237 1034q-8 2 -39 2q-233 3 -303 -106q-59 -90 -61 -422zM647 154q17 -2 39 -2q232 -2 301 104q45 68 57 207q5 55 7 217q2 334 -56 426q-37 59 -108 82z" />
<glyph unicode="&#xd9;" horiz-adv-x="1335" d="M160 686v680h182v-680q0 -219 2 -252q4 -108 31 -162q59 -122 293 -122q235 0 295 120q26 54 30 164q2 31 2 252v680h181v-680q0 -223 -5 -299q-6 -98 -32 -166q-97 -237 -471 -237q-375 0 -471 237q-27 68 -33 166q-4 76 -4 299zM416 1765h196l273 -258h-197z" />
<glyph unicode="&#xda;" horiz-adv-x="1335" d="M160 686v680h182v-680q0 -219 2 -252q4 -108 31 -162q59 -122 293 -122q235 0 295 120q26 54 30 164q2 31 2 252v680h181v-680q0 -223 -5 -299q-6 -98 -32 -166q-97 -237 -471 -237q-375 0 -471 237q-27 68 -33 166q-4 76 -4 299zM471 1507l272 258h197l-273 -258h-196z " />
<glyph unicode="&#xdb;" horiz-adv-x="1335" d="M160 686v680h182v-680q0 -219 2 -252q4 -108 31 -162q59 -122 293 -122q235 0 295 120q26 54 30 164q2 31 2 252v680h181v-680q0 -223 -5 -299q-6 -98 -32 -166q-97 -237 -471 -237q-375 0 -471 237q-27 68 -33 166q-4 76 -4 299zM336 1505l268 260h156l268 -260h-184 l-162 156l-159 -156h-187z" />
<glyph unicode="&#xdc;" horiz-adv-x="1335" d="M160 686v680h182v-680q0 -219 2 -252q4 -108 31 -162q59 -122 293 -122q235 0 295 120q26 54 30 164q2 31 2 252v680h181v-680q0 -223 -5 -299q-6 -98 -32 -166q-97 -237 -471 -237q-375 0 -471 237q-27 68 -33 166q-4 76 -4 299zM361 1669q0 98 98 98q102 0 102 -98 q0 -101 -102 -101q-98 0 -98 101zM801 1669q0 98 98 98q103 0 103 -98q0 -101 -103 -101q-98 0 -98 101z" />
<glyph unicode="&#xdd;" horiz-adv-x="1163" d="M4 1366h209l373 -604l368 604h205l-485 -770v-596h-182v596zM369 1507l272 258h197l-273 -258h-196z" />
<glyph unicode="&#xde;" horiz-adv-x="1260" d="M172 0v1366h182v-287h283q285 0 385 -51q152 -80 152 -338q0 -262 -152 -342q-100 -55 -385 -55h-283v-293h-182zM354 457h279q215 0 268 26q92 47 92 203t-92 203q-53 26 -268 26h-279v-458z" />
<glyph unicode="&#xdf;" horiz-adv-x="1159" d="M143 0v983q0 141 7 184q16 105 79 166q111 109 346 109q228 0 330 -82q107 -88 107 -289q0 -254 -148 -319q162 -64 162 -351q0 -229 -121 -321q-104 -80 -334 -80h-125v158h129q158 0 216.5 50t58.5 195q0 164 -62 220q-57 49 -229 49h-113v157h113q152 0 207 37 q74 49 74 193q0 131 -52.5 177t-212.5 46q-169 0 -221 -72q-37 -55 -37 -221v-989h-174z" />
<glyph unicode="&#xe0;" horiz-adv-x="1104" d="M96 293q0 190 123 262q92 53 287 53h293q0 148 -31 187q-45 59 -219 59q-117 0 -172 -20q-84 -33 -84 -127h-168q0 301 438 301q275 0 361 -138q47 -75 47 -262v-608h-160v96q-96 -112 -330 -112q-385 0 -385 309zM272 295q0 -86 49.5 -124t176.5 -38q194 0 256 82 q47 64 47 246h-303q-125 0 -170 -31q-56 -35 -56 -135zM301 1366h196l273 -258h-197z" />
<glyph unicode="&#xe1;" horiz-adv-x="1104" d="M96 293q0 190 123 262q92 53 287 53h293q0 148 -31 187q-45 59 -219 59q-117 0 -172 -20q-84 -33 -84 -127h-168q0 301 438 301q275 0 361 -138q47 -75 47 -262v-608h-160v96q-96 -112 -330 -112q-385 0 -385 309zM272 295q0 -86 49.5 -124t176.5 -38q194 0 256 82 q47 64 47 246h-303q-125 0 -170 -31q-56 -35 -56 -135zM342 1108l272 258h197l-273 -258h-196z" />
<glyph unicode="&#xe2;" horiz-adv-x="1104" d="M96 293q0 190 123 262q92 53 287 53h293q0 148 -31 187q-45 59 -219 59q-117 0 -172 -20q-84 -33 -84 -127h-168q0 301 438 301q275 0 361 -138q47 -75 47 -262v-608h-160v96q-96 -112 -330 -112q-385 0 -385 309zM211 1106l268 260h156l268 -260h-184l-162 156 l-159 -156h-187zM272 295q0 -86 49.5 -124t176.5 -38q194 0 256 82q47 64 47 246h-303q-125 0 -170 -31q-56 -35 -56 -135z" />
<glyph unicode="&#xe3;" horiz-adv-x="1104" d="M96 293q0 190 123 262q92 53 287 53h293q0 148 -31 187q-45 59 -219 59q-117 0 -172 -20q-84 -33 -84 -127h-168q0 301 438 301q275 0 361 -138q47 -75 47 -262v-608h-160v96q-96 -112 -330 -112q-385 0 -385 309zM156 1264q68 34 133 69q80 35 143 35q64 0 123 -35 q95 -55 127 -55q37 0 86 25l121 63l64 -119q-68 -35 -133 -69q-80 -37 -144 -37q-61 0 -121 35q-92 55 -129 55t-86 -25l-121 -61zM272 295q0 -86 49.5 -124t176.5 -38q194 0 256 82q47 64 47 246h-303q-125 0 -170 -31q-56 -35 -56 -135z" />
<glyph unicode="&#xe4;" horiz-adv-x="1104" d="M96 293q0 190 123 262q92 53 287 53h293q0 148 -31 187q-45 59 -219 59q-117 0 -172 -20q-84 -33 -84 -127h-168q0 301 438 301q275 0 361 -138q47 -75 47 -262v-608h-160v96q-96 -112 -330 -112q-385 0 -385 309zM236 1268q0 98 98 98q102 0 102 -98q0 -101 -102 -101 q-98 0 -98 101zM272 295q0 -86 49.5 -124t176.5 -38q194 0 256 82q47 64 47 246h-303q-125 0 -170 -31q-56 -35 -56 -135zM676 1268q0 98 98 98q103 0 103 -98q0 -101 -103 -101q-98 0 -98 101z" />
<glyph unicode="&#xe5;" horiz-adv-x="1104" d="M96 293q0 190 123 262q92 53 287 53h293q0 148 -31 187q-45 59 -219 59q-117 0 -172 -20q-84 -33 -84 -127h-168q0 223 229 280q-39 37 -39 158q0 123 56.5 172t189.5 49t189.5 -49t56.5 -172t-43 -162q139 -43 184 -162q23 -65 23 -213v-608h-160v96q-96 -112 -330 -112 q-385 0 -385 309zM272 295q0 -86 49.5 -124t176.5 -38q194 0 256 82q47 64 47 246h-303q-125 0 -170 -31q-56 -35 -56 -135zM432 1126q0 -75 24.5 -100t104.5 -25q76 0 100.5 25t24.5 100q0 78 -25.5 106t-103.5 28q-80 0 -102.5 -28t-22.5 -106z" />
<glyph unicode="&#xe6;" horiz-adv-x="1790" d="M96 287q0 190 127 262q90 51 287 51h297q0 156 -39 199q-47 55 -215 55q-119 0 -172 -20q-88 -33 -88 -127h-168q0 301 430 301q268 0 354 -127q97 127 332 127q285 0 375 -152q61 -106 61 -407h-702q0 -170 47 -236q59 -78 227 -78q250 0 252 154h164q0 -305 -422 -305 q-268 0 -356 149q-109 -149 -400 -149q-194 0 -288 65q-103 74 -103 238zM272 289q0 -84 51.5 -120t178.5 -36q196 0 256 76q47 57 49 242h-305q-117 0 -160 -21q-70 -35 -70 -141zM977 598h528q0 147 -55 203.5t-211 56.5q-149 0 -205.5 -61.5t-56.5 -198.5z" />
<glyph unicode="&#xe7;" horiz-adv-x="1071" d="M113 498q0 258 71 366q97 144 373 144q412 0 412 -306h-166q0 148 -242 148q-176 0 -231 -84q-41 -68 -41 -268q0 -203 41 -271q55 -86 231 -86q242 0 242 148h166q0 -287 -361 -303v-70q133 -4 133 -141q0 -162 -172 -162t-172 143h97q0 -57 75 -57q70 0 70 72 q0 63 -72 67q-32 2 -61 2v146q-238 12 -324 149q-69 109 -69 363z" />
<glyph unicode="&#xe8;" horiz-adv-x="1102" d="M113 487q0 265 75 377q99 144 365 144q285 0 375 -160q61 -109 61 -412h-700q0 -168 47 -229q57 -72 227 -72q248 0 250 154h164q0 -305 -418 -305q-270 0 -369 137q-77 108 -77 366zM291 586h526q0 151 -47 207q-55 65 -217 65q-154 0 -213 -70q-49 -59 -49 -202z M297 1366h196l273 -258h-197z" />
<glyph unicode="&#xe9;" horiz-adv-x="1102" d="M113 487q0 265 75 377q99 144 365 144q285 0 375 -160q61 -109 61 -412h-700q0 -168 47 -229q57 -72 227 -72q248 0 250 154h164q0 -305 -418 -305q-270 0 -369 137q-77 108 -77 366zM291 586h526q0 151 -47 207q-55 65 -217 65q-154 0 -213 -70q-49 -59 -49 -202z M340 1108l272 258h197l-273 -258h-196z" />
<glyph unicode="&#xea;" horiz-adv-x="1102" d="M113 487q0 265 75 377q99 144 365 144q285 0 375 -160q61 -109 61 -412h-700q0 -168 47 -229q57 -72 227 -72q248 0 250 154h164q0 -305 -418 -305q-270 0 -369 137q-77 108 -77 366zM207 1106l268 260h156l268 -260h-184l-162 156l-159 -156h-187zM291 586h526 q0 151 -47 207q-55 65 -217 65q-154 0 -213 -70q-49 -59 -49 -202z" />
<glyph unicode="&#xeb;" horiz-adv-x="1102" d="M113 487q0 265 75 377q99 144 365 144q285 0 375 -160q61 -109 61 -412h-700q0 -168 47 -229q57 -72 227 -72q248 0 250 154h164q0 -305 -418 -305q-270 0 -369 137q-77 108 -77 366zM234 1268q0 98 98 98q102 0 102 -98q0 -101 -102 -101q-98 0 -98 101zM291 586h526 q0 151 -47 207q-55 65 -217 65q-154 0 -213 -70q-49 -59 -49 -202zM674 1268q0 98 98 98q103 0 103 -98q0 -101 -103 -101q-98 0 -98 101z" />
<glyph unicode="&#xec;" horiz-adv-x="455" d="M16 1366h196l273 -258h-197zM143 0v991h174v-991h-174z" />
<glyph unicode="&#xed;" horiz-adv-x="455" d="M11 1108l272 258h197l-273 -258h-196zM143 0v991h174v-991h-174z" />
<glyph unicode="&#xee;" horiz-adv-x="455" d="M-100 1106l268 260h156l268 -260h-184l-162 156l-159 -156h-187zM143 0v991h174v-991h-174z" />
<glyph unicode="&#xef;" horiz-adv-x="455" d="M-70 1268q0 98 98 98q102 0 102 -98q0 -101 -102 -101q-98 0 -98 101zM143 0v991h174v-991h-174zM370 1268q0 98 98 98q103 0 103 -98q0 -101 -103 -101q-98 0 -98 101z" />
<glyph unicode="&#xf0;" horiz-adv-x="1130" d="M113 498q0 229 57 333q82 148 313 162q68 4 127 -2l-196 199l-117 -98l-90 90l117 100l-95 94l117 105l94 -97l109 97l88 -90l-107 -95l304 -309q104 -106 143 -209q41 -108 41 -282q0 -275 -86 -385q-101 -127 -367 -127q-270 0 -368 127q-82 108 -84 387zM285 496 q0 -205 39 -267q53 -86 241 -86q187 0 240 86q39 62 39 267q0 204 -70 278q-65 68 -233 68q-162 0 -215 -92q-41 -70 -41 -254z" />
<glyph unicode="&#xf1;" horiz-adv-x="1112" d="M143 0v991h158v-96q100 113 303 113q264 0 338 -152q37 -76 37 -313v-543h-174v522q0 199 -21 242q-36 82 -196 82q-187 0 -240 -119q-31 -68 -31 -270v-457h-174zM160 1264q68 34 133 69q80 35 143 35q64 0 123 -35q95 -55 127 -55q37 0 86 25l121 63l64 -119 q-68 -35 -133 -69q-80 -37 -144 -37q-61 0 -121 35q-92 55 -129 55t-86 -25l-121 -61z" />
<glyph unicode="&#xf2;" horiz-adv-x="1137" d="M113 496q0 301 100 401q111 111 356 111q359 0 428 -242q27 -90 27 -270q0 -301 -100 -402q-111 -110 -355 -110q-360 0 -430 241q-26 92 -26 271zM289 496q0 -203 41 -267q55 -88 239 -88q183 0 238 88q41 64 41 267q0 202 -43 268q-53 86 -236 86q-184 0 -239 -88 q-41 -64 -41 -266zM357 1366h196l273 -258h-197z" />
<glyph unicode="&#xf3;" horiz-adv-x="1137" d="M113 496q0 301 100 401q111 111 356 111q359 0 428 -242q27 -90 27 -270q0 -301 -100 -402q-111 -110 -355 -110q-360 0 -430 241q-26 92 -26 271zM289 496q0 -203 41 -267q55 -88 239 -88q183 0 238 88q41 64 41 267q0 202 -43 268q-53 86 -236 86q-184 0 -239 -88 q-41 -64 -41 -266zM318 1108l272 258h197l-273 -258h-196z" />
<glyph unicode="&#xf4;" horiz-adv-x="1137" d="M113 496q0 301 100 401q111 111 356 111q359 0 428 -242q27 -90 27 -270q0 -301 -100 -402q-111 -110 -355 -110q-360 0 -430 241q-26 92 -26 271zM227 1106l268 260h156l268 -260h-184l-162 156l-159 -156h-187zM289 496q0 -203 41 -267q55 -88 239 -88q183 0 238 88 q41 64 41 267q0 202 -43 268q-53 86 -236 86q-184 0 -239 -88q-41 -64 -41 -266z" />
<glyph unicode="&#xf5;" horiz-adv-x="1137" d="M113 496q0 301 100 401q111 111 356 111q359 0 428 -242q27 -90 27 -270q0 -301 -100 -402q-111 -110 -355 -110q-360 0 -430 241q-26 92 -26 271zM176 1264q68 34 133 69q80 35 143 35q64 0 123 -35q95 -55 127 -55q37 0 86 25l121 63l64 -119q-68 -35 -133 -69 q-80 -37 -144 -37q-61 0 -121 35q-92 55 -129 55t-86 -25l-121 -61zM289 496q0 -203 41 -267q55 -88 239 -88q183 0 238 88q41 64 41 267q0 202 -43 268q-53 86 -236 86q-184 0 -239 -88q-41 -64 -41 -266z" />
<glyph unicode="&#xf6;" horiz-adv-x="1137" d="M113 496q0 301 100 401q111 111 356 111q359 0 428 -242q27 -90 27 -270q0 -301 -100 -402q-111 -110 -355 -110q-360 0 -430 241q-26 92 -26 271zM254 1268q0 98 98 98q102 0 102 -98q0 -101 -102 -101q-98 0 -98 101zM289 496q0 -203 41 -267q55 -88 239 -88 q183 0 238 88q41 64 41 267q0 202 -43 268q-53 86 -236 86q-184 0 -239 -88q-41 -64 -41 -266zM694 1268q0 98 98 98q103 0 103 -98q0 -101 -103 -101q-98 0 -98 101z" />
<glyph unicode="&#xf7;" d="M78 418v157h1036v-157h-1036zM485 98q0 111 113 111q111 0 111 -111q0 -114 -111 -114q-113 0 -113 114zM485 897q0 111 113 111q111 0 111 -111q0 -115 -111 -115q-113 0 -113 115z" />
<glyph unicode="&#xf8;" horiz-adv-x="1137" d="M113 500q2 301 104 399q115 111 356 109q70 0 99 -4l67 180l148 -54l-64 -165q131 -56 174 -197q29 -90 27 -276q-2 -302 -104 -400q-115 -110 -355 -108q-35 0 -100 4l-72 -193l-149 53l69 181q-131 57 -174 196q-28 88 -26 275zM289 498q-2 -117 8 -168 q18 -101 78 -142q241 633 241 660q-26 2 -43 2q-184 2 -239 -86q-43 -66 -45 -266zM524 143q23 -2 51 -2q183 -2 234 86q37 62 39 267q2 161 -21 229q-16 43 -61 84z" />
<glyph unicode="&#xf9;" horiz-adv-x="1112" d="M133 451v540h176v-522q0 -199 19 -242q39 -82 198 -82q187 0 238 119q31 66 31 271v456h174v-991h-162v98q-102 -114 -303 -114q-256 0 -330 151q-41 80 -41 316zM326 1366h196l273 -258h-197z" />
<glyph unicode="&#xfa;" horiz-adv-x="1112" d="M133 451v540h176v-522q0 -199 19 -242q39 -82 198 -82q187 0 238 119q31 66 31 271v456h174v-991h-162v98q-102 -114 -303 -114q-256 0 -330 151q-41 80 -41 316zM348 1108l272 258h197l-273 -258h-196z" />
<glyph unicode="&#xfb;" horiz-adv-x="1112" d="M133 451v540h176v-522q0 -199 19 -242q39 -82 198 -82q187 0 238 119q31 66 31 271v456h174v-991h-162v98q-102 -114 -303 -114q-256 0 -330 151q-41 80 -41 316zM213 1106l268 260h156l268 -260h-184l-162 156l-159 -156h-187z" />
<glyph unicode="&#xfc;" horiz-adv-x="1112" d="M133 451v540h176v-522q0 -199 19 -242q39 -82 198 -82q187 0 238 119q31 66 31 271v456h174v-991h-162v98q-102 -114 -303 -114q-256 0 -330 151q-41 80 -41 316zM242 1268q0 98 98 98q102 0 102 -98q0 -101 -102 -101q-98 0 -98 101zM682 1268q0 98 98 98q103 0 103 -98 q0 -101 -103 -101q-98 0 -98 101z" />
<glyph unicode="&#xfd;" horiz-adv-x="967" d="M29 991h182l276 -776l273 776h182l-522 -1382h-178l155 403zM275 1108l272 258h197l-273 -258h-196z" />
<glyph unicode="&#xfe;" horiz-adv-x="1141" d="M143 -391v1818h172v-530q107 113 310 111q252 -2 338 -144q65 -104 65 -370q0 -242 -63 -351q-93 -159 -353 -159q-198 0 -295 110v-485h-174zM317 494q0 -207 62.5 -279t232.5 -72q148 0 199 84q43 72 43 269q0 194 -43 266q-51 82 -199 82q-172 0 -233.5 -71 t-61.5 -279z" />
<glyph unicode="&#xff;" horiz-adv-x="967" d="M29 991h182l276 -776l273 776h182l-522 -1382h-178l155 403zM168 1268q0 98 98 98q102 0 102 -98q0 -101 -102 -101q-98 0 -98 101zM608 1268q0 98 98 98q103 0 103 -98q0 -101 -103 -101q-98 0 -98 101z" />
<glyph unicode="&#x152;" horiz-adv-x="1878" d="M147 682q0 184 9 260q18 156 77 246q66 100 179 141q106 37 299 37h1022v-164h-631v-420h610v-164h-610v-454h631v-164h-1022q-199 0 -303 37q-111 41 -177 141q-59 90 -75 244q-9 74 -9 260zM330 682q0 -324 67 -422q45 -65 148 -86q57 -10 178 -10h199v1038h-199 q-143 0 -215 -20.5t-111 -77.5q-67 -96 -67 -422z" />
<glyph unicode="&#x153;" horiz-adv-x="1837" d="M113 496q0 301 100 401q111 111 358 111q273 0 363 -152q88 152 354 152q283 0 375 -160q61 -109 61 -412h-700q0 -168 47 -229q57 -72 227 -72q248 0 250 154h164q0 -305 -418 -305q-272 0 -360 151q-92 -151 -365 -151q-360 0 -430 241q-26 90 -26 271zM289 496 q0 -203 41 -267q55 -88 239 -88q185 0 238 86q41 66 41 267q0 204 -43 270q-53 86 -236 86q-184 0 -239 -88q-41 -64 -41 -266zM1026 586h526q0 151 -47 207q-55 65 -217 65q-153 0 -213 -70q-49 -59 -49 -202z" />
<glyph unicode="&#x178;" horiz-adv-x="1163" d="M4 1366h209l373 -604l368 604h205l-485 -770v-596h-182v596zM264 1667q0 98 98 98q102 0 102 -98q0 -101 -102 -101q-98 0 -98 101zM704 1667q0 98 98 98q103 0 103 -98q0 -101 -103 -101q-98 0 -98 101z" />
<glyph unicode="&#x2c6;" horiz-adv-x="877" d="M92 1106l268 260h156l268 -260h-184l-162 156l-159 -156h-187z" />
<glyph unicode="&#x2dc;" horiz-adv-x="877" d="M41 1264q68 34 133 69q80 35 143 35q64 0 123 -35q95 -55 127 -55q37 0 86 25l121 63l64 -119q-68 -35 -133 -69q-80 -37 -144 -37q-61 0 -121 35q-92 55 -129 55t-86 -25l-121 -61z" />
<glyph unicode="&#x2000;" horiz-adv-x="883" />
<glyph unicode="&#x2001;" horiz-adv-x="1767" />
<glyph unicode="&#x2002;" horiz-adv-x="883" />
<glyph unicode="&#x2003;" horiz-adv-x="1767" />
<glyph unicode="&#x2004;" horiz-adv-x="589" />
<glyph unicode="&#x2005;" horiz-adv-x="441" />
<glyph unicode="&#x2006;" horiz-adv-x="294" />
<glyph unicode="&#x2007;" horiz-adv-x="294" />
<glyph unicode="&#x2008;" horiz-adv-x="220" />
<glyph unicode="&#x2009;" horiz-adv-x="353" />
<glyph unicode="&#x200a;" horiz-adv-x="98" />
<glyph unicode="&#x2010;" horiz-adv-x="1034" d="M152 418v157h731v-157h-731z" />
<glyph unicode="&#x2011;" horiz-adv-x="1034" d="M152 418v157h731v-157h-731z" />
<glyph unicode="&#x2012;" horiz-adv-x="1034" d="M152 418v157h731v-157h-731z" />
<glyph unicode="&#x2013;" d="M66 418v157h1060v-157h-1060z" />
<glyph unicode="&#x2014;" horiz-adv-x="2054" d="M203 418v157h1648v-157h-1648z" />
<glyph unicode="&#x2018;" horiz-adv-x="455" d="M152 866v191q0 166 94 256l76 71l108 -104q-78 -74 -92 -96q-25 -41 -25 -127v-191h-161z" />
<glyph unicode="&#x2019;" horiz-adv-x="455" d="M25 952q77 74 92 97q24 41 24 127v190h162v-190q0 -166 -94 -256l-76 -72z" />
<glyph unicode="&#x201a;" horiz-adv-x="455" d="M25 -205q77 74 92 96q24 41 24 127v191h162v-191q0 -165 -94 -256l-76 -71z" />
<glyph unicode="&#x201c;" horiz-adv-x="807" d="M152 866v193q0 96 14 143q18 62 74 113l75 69l111 -102q-76 -72 -90 -98q-23 -39 -23 -125v-193h-161zM504 866v191q0 166 94 256l76 71l108 -104q-77 -74 -92 -96q-24 -41 -24 -127v-191h-162z" />
<glyph unicode="&#x201d;" horiz-adv-x="805" d="M25 952q77 74 92 97q24 41 24 127v190h162v-190q0 -166 -94 -256l-76 -72zM381 952q76 72 90 99q21 36 21 125v190h161v-190q0 -91 -14 -138q-18 -65 -74 -118l-76 -72z" />
<glyph unicode="&#x201e;" horiz-adv-x="807" d="M25 -205q77 74 92 96q24 41 24 127v191h162v-191q0 -165 -94 -256l-76 -71zM381 -205q76 72 90 99q23 38 23 124v191h161v-191q0 -90 -14 -137q-18 -65 -74 -119l-75 -71z" />
<glyph unicode="&#x2022;" horiz-adv-x="1018" d="M289 684q0 221 221 221q219 0 219 -221q0 -115 -52 -167t-167 -52q-221 0 -221 219z" />
<glyph unicode="&#x2026;" horiz-adv-x="2028" d="M227 98q0 111 113 111q111 0 111 -111q0 -114 -111 -114q-113 0 -113 114zM903 98q0 111 113 111q110 0 110 -111q0 -114 -110 -114q-113 0 -113 114zM1579 98q0 111 113 111q110 0 110 -111q0 -114 -110 -114q-113 0 -113 114z" />
<glyph unicode="&#x202f;" horiz-adv-x="353" />
<glyph unicode="&#x2039;" horiz-adv-x="563" d="M88 489q0 109 98 238q52 66 185 195l112 -109l-84 -86q-145 -149 -145 -235q0 -62 53 -132q25 -32 111 -118l63 -64l-112 -106q-140 131 -185 186q-96 121 -96 231z" />
<glyph unicode="&#x203a;" horiz-adv-x="563" d="M80 813l113 109q133 -129 184 -195q98 -129 98 -238q0 -110 -96 -231q-45 -55 -184 -186l-113 106l63 64q86 86 111 118q53 70 53 132q0 86 -145 235z" />
<glyph unicode="&#x205f;" horiz-adv-x="441" />
<glyph unicode="&#x20ac;" d="M94 743v148h123q6 254 96 364q103 125 357 125q420 0 420 -325h-177q0 100 -67 137q-51 29 -176 29q-172 0 -230 -86q-45 -66 -47 -244h367v-148h-369v-116h367v-148h-365q2 -182 45 -246q58 -86 230 -86q118 0 168 23q77 35 77 141h177q0 -325 -420 -325 q-256 0 -359 129q-88 110 -94 364h-121v148h121v116h-123z" />
<glyph unicode="&#x2122;" horiz-adv-x="1733" d="M37 1249v117h655v-117h-260v-772h-133v772h-262zM762 477v889h164l266 -717l268 717h160v-889h-125v658l-242 -658h-131l-235 656v-656h-125z" />
<glyph unicode="&#x25fc;" horiz-adv-x="990" d="M0 0v990h990v-990h-990z" />
</font>
</defs>
</svg>
